REM DIRINDEX 1\2,1\3,1\4,1\5
REM DIRNAME cjc004,folder01,folder02,folder03,folder04
TITLE ""
FILE "1Q_t_2001-2010.mp3" MP3
  TRACK 01 AUDIO
    TITLE "3:cjc004_6911"
    INDEX 01 00:00:00
  TRACK 02 AUDIO
    TITLE "0:"
    INDEX 01 00:01:01
  TRACK 03 AUDIO
    TITLE "4:cjc004_6912"
    INDEX 01 00:01:28
  TRACK 04 AUDIO
    TITLE "0:"
    INDEX 01 00:02:47
  TRACK 05 AUDIO
    TITLE "5:cjc004_6913"
    INDEX 01 00:02:71
  TRACK 06 AUDIO
    TITLE "0:"
    INDEX 01 00:07:35
  TRACK 07 AUDIO
    TITLE "3:cjc004_6914"
    INDEX 01 00:08:28
  TRACK 08 AUDIO
    TITLE "0:"
    INDEX 01 00:09:28
  TRACK 09 AUDIO
    TITLE "4:cjc004_6915"
    INDEX 01 00:09:59
  TRACK 10 AUDIO
    TITLE "0:"
    INDEX 01 00:11:05
  TRACK 11 AUDIO
    TITLE "5:cjc004_6916"
    INDEX 01 00:11:33
  TRACK 12 AUDIO
    TITLE "0:"
    INDEX 01 00:15:25
  TRACK 13 AUDIO
    TITLE "3:cjc004_6917"
    INDEX 01 00:15:74
  TRACK 14 AUDIO
    TITLE "0:"
    INDEX 01 00:17:25
  TRACK 15 AUDIO
    TITLE "4:cjc004_6918"
    INDEX 01 00:17:49
  TRACK 16 AUDIO
    TITLE "0:"
    INDEX 01 00:18:68
  TRACK 17 AUDIO
    TITLE "5:cjc004_6919"
    INDEX 01 00:19:18
  TRACK 18 AUDIO
    TITLE "0:"
    INDEX 01 00:23:38
  TRACK 19 AUDIO
    TITLE "3:cjc004_6920"
    INDEX 01 00:24:14
  TRACK 20 AUDIO
    TITLE "0:"
    INDEX 01 00:25:43
  TRACK 21 AUDIO
    TITLE "4:cjc004_6921"
    INDEX 01 00:25:70
  TRACK 22 AUDIO
    TITLE "0:"
    INDEX 01 00:27:14
  TRACK 23 AUDIO
    TITLE "5:cjc004_6922"
    INDEX 01 00:27:38
  TRACK 24 AUDIO
    TITLE "0:"
    INDEX 01 00:32:48
  TRACK 25 AUDIO
    TITLE "3:cjc004_6923"
    INDEX 01 00:33:26
  TRACK 26 AUDIO
    TITLE "0:"
    INDEX 01 00:34:55
  TRACK 27 AUDIO
    TITLE "4:cjc004_6924"
    INDEX 01 00:35:02
  TRACK 28 AUDIO
    TITLE "0:"
    INDEX 01 00:36:19
  TRACK 29 AUDIO
    TITLE "5:cjc004_6925"
    INDEX 01 00:36:42
  TRACK 30 AUDIO
    TITLE "0:"
    INDEX 01 00:41:73
  TRACK 31 AUDIO
    TITLE "3:cjc004_6926"
    INDEX 01 00:42:47
  TRACK 32 AUDIO
    TITLE "0:"
    INDEX 01 00:43:68
  TRACK 33 AUDIO
    TITLE "4:cjc004_6927"
    INDEX 01 00:44:22
  TRACK 34 AUDIO
    TITLE "0:"
    INDEX 01 00:46:02
  TRACK 35 AUDIO
    TITLE "5:cjc004_6928"
    INDEX 01 00:46:29
  TRACK 36 AUDIO
    TITLE "0:"
    INDEX 01 00:51:22
  TRACK 37 AUDIO
    TITLE "3:cjc004_6929"
    INDEX 01 00:51:73
  TRACK 38 AUDIO
    TITLE "0:"
    INDEX 01 00:52:73
  TRACK 39 AUDIO
    TITLE "4:cjc004_6930"
    INDEX 01 00:53:29
  TRACK 40 AUDIO
    TITLE "0:"
    INDEX 01 00:54:70
  TRACK 41 AUDIO
    TITLE "5:cjc004_6931"
    INDEX 01 00:55:18
  TRACK 42 AUDIO
    TITLE "0:"
    INDEX 01 01:00:25
  TRACK 43 AUDIO
    TITLE "3:cjc004_6932"
    INDEX 01 01:00:74
  TRACK 44 AUDIO
    TITLE "0:"
    INDEX 01 01:02:16
  TRACK 45 AUDIO
    TITLE "4:cjc004_6933"
    INDEX 01 01:02:46
  TRACK 46 AUDIO
    TITLE "0:"
    INDEX 01 01:03:67
  TRACK 47 AUDIO
    TITLE "5:cjc004_6934"
    INDEX 01 01:04:15
  TRACK 48 AUDIO
    TITLE "0:"
    INDEX 01 01:09:40
  TRACK 49 AUDIO
    TITLE "3:cjc004_6935"
    INDEX 01 01:10:24
  TRACK 50 AUDIO
    TITLE "0:"
    INDEX 01 01:11:43
  TRACK 51 AUDIO
    TITLE "4:cjc004_6936"
    INDEX 01 01:11:74
  TRACK 52 AUDIO
    TITLE "0:"
    INDEX 01 01:13:67
  TRACK 53 AUDIO
    TITLE "5:cjc004_6937"
    INDEX 01 01:14:21
  TRACK 54 AUDIO
    TITLE "0:"
    INDEX 01 01:18:49
  TRACK 55 AUDIO
    TITLE "3:cjc004_6938"
    INDEX 01 01:19:28
  TRACK 56 AUDIO
    TITLE "0:"
    INDEX 01 01:20:49
  TRACK 57 AUDIO
    TITLE "4:cjc004_6939"
    INDEX 01 01:21:06
  TRACK 58 AUDIO
    TITLE "0:"
    INDEX 01 01:23:01
  TRACK 59 AUDIO
    TITLE "5:cjc004_6940"
    INDEX 01 01:23:24
  TRACK 60 AUDIO
    TITLE "0:"
    INDEX 01 01:27:28
